PathFileType	4	(X/Y/Z)	Patient4_TMGait_0pt2_03_left_15.trc.trc
DataRate	CameraRate	NumFrames	NumMarkers	Units	OrigDataRate	OrigDataStartFrame	OrigNumFrames
43.613707165109	43.613707165109	4	33	mm	43.613707165109	124	       141
Frame#	Time	Sacral			L.Shoulder			Chest			R.Shoulder			Neck			R.ASIS			L.ASIS			R.Thigh.Superior			R.Thigh.Lateral			R.Thigh.Inferior			R.Patella			L.Thigh.Superior			L.Thigh.Lateral			L.Thigh.Inferior			L.Patella			L.Shank.Superior			L.Shank.Lateral			L.Shank.Inferior			R.Shank.Superior			R.Shank.Lateral			R.Shank.Inferior			R.Heel			R.Midfoot.Superior			R.Midfoot.Lateral			R.Toe			L.Heel			L.Midfoot.Lateral			L.Midfoot.Superior			L.Toe			L.Elbow			L.Wrist			R.Elbow			R.Wrist			
		X1	Y1	Z1	X2	Y2	Z2	X3	Y3	Z3	X4	Y4	Z4	X5	Y5	Z5	X6	Y6	Z6	X7	Y7	Z7	X8	Y8	Z8	X9	Y9	Z9	X10	Y10	Z10	X11	Y11	Z11	X12	Y12	Z12	X13	Y13	Z13	X14	Y14	Z14	X15	Y15	Z15	X16	Y16	Z16	X17	Y17	Z17	X18	Y18	Z18	X19	Y19	Z19	X20	Y20	Z20	X21	Y21	Z21	X22	Y22	Z22	X23	Y23	Z23	X24	Y24	Z24	X25	Y25	Z25	X26	Y26	Z26	X27	Y27	Z27	X28	Y28	Z28	X29	Y29	Z29	X30	Y30	Z30	X31	Y31	Z31	X32	Y32	Z32	X33	Y33	Z33	

124	33.830214285714	840.649285042568	1001.454427830735	614.308175376842	970.939542976625	1425.476694861191	398.964734442471	1109.888084298969	1355.704268063603	529.531764366377	1074.852198661942	1433.208116768361	715.866490367352	987.397751497747	1487.343829749424	554.857367248225	1084.998452775175	927.554141553150	682.482883143060	1019.101921595959	958.218756927026	416.405866616651	1089.063897265962	718.510207216515	645.057129174271	1002.747712045334	614.860535639454	715.318418269875	1057.783717395472	556.704887051373	625.026139868635	1043.237336989490	464.425963431246	630.394929640068	1086.772735193808	760.660363570184	429.989564221676	1006.073185258526	627.724496048367	358.090405532039	1115.965045006285	572.642448826894	408.139271873623	1128.264104411077	507.159669155115	404.954411067122	1114.968936770999	436.273941012304	388.762762934313	1044.937207028282	312.301912477026	329.642861529825	1128.652594637175	206.952650620610	377.219316705957	993.059611786242	383.012325419167	638.979364433976	906.673189253061	297.313777824325	710.071797961281	912.181781326759	198.768585862613	641.204636498223	740.406601005806	55.430904086448	626.307051957131	916.752484041772	97.352102438247	648.901379600770	828.410921690209	42.036600911123	693.725046536195	1035.027472015205	38.399602823212	668.536989481619	1031.670646882037	39.488146044088	405.294163238665	1106.878645647711	38.440911095993	326.229622036135	1186.555999665858	104.434513595282	351.601555800899	1315.679831486690	59.663021254510	326.042157830271	810.229361521975	1106.962561027443	339.134041230884	756.107284796652	859.973886675399	415.407078272015	1295.731920523583	1186.153378617222	816.501993788636	1496.965794516168	1309.917740570692	724.946267321814	
125	33.853142857143	841.597438611961	1000.342205624704	609.099596450462	972.270894964164	1424.331672991875	393.699938919930	1110.546622045482	1355.174237162710	525.299315039836	1074.040215883153	1432.453570910333	711.536165078850	987.644940233578	1486.582353791774	549.836664407016	1085.883123058476	927.292083764659	678.804993897960	1021.306683930652	957.010793689020	412.332159767811	1089.392081723918	717.837663036499	642.300020807124	1002.211008633263	614.716590960387	712.652256635206	1057.304169425901	555.882759213250	623.013470942898	1042.105199598306	463.492191938017	628.730668382343	1090.026424520876	759.577969615504	426.724457324738	1009.462727307641	626.221851590480	355.662034145199	1119.354931624611	571.284045494934	406.119366323269	1131.295436933212	505.308021382791	403.505515158754	1117.158808490475	434.241742737663	387.650832151507	1045.663246997352	311.150217421585	328.911533436744	1127.125219887216	204.830124332771	377.411696720880	991.158799683536	382.390343163776	637.565704560772	903.898699363026	297.821688119959	709.133145647678	908.800452249350	198.822075467563	640.701459066780	736.081714469729	56.413305255765	626.288452610501	912.608064339927	97.585918059240	648.962611463437	824.013017051897	42.558198549287	693.716423890267	1030.541002614231	38.295459876973	668.597308547040	1027.381157231300	38.985753747841	405.957578033476	1102.275841891989	37.850139818890	326.508872090236	1182.815093332071	102.516187133229	352.337368038536	1311.449700299628	56.335408111761	325.807070816663	814.819885807552	1104.328194226799	330.815187803260	762.784839628342	855.918902853208	403.677163625686	1292.748602872049	1182.275579953809	812.205992408355	1496.700829020421	1302.250016950782	720.601219213347	
126	33.876071428571	842.681141274329	999.853589372399	603.503516365438	973.915098807054	1423.712123259757	388.140112248868	1111.445705295766	1355.126191476967	520.802689225047	1073.439309844609	1432.228463959820	706.901071278072	988.123755113666	1486.306586688959	544.501288813963	1086.758449340464	927.448139055855	674.791596783082	1023.665546200607	956.374988919048	407.909372963137	1089.518385745439	717.527660749818	639.320933426074	1001.447556751146	615.034205970950	709.835330756349	1056.586460580641	555.447046326651	620.893180337908	1040.775208358867	463.022867156780	627.054385586564	1093.365143776555	759.181771556589	423.262575902397	1013.134019665437	625.382783683834	352.857060504982	1122.865801268537	570.467668450194	403.847076054907	1134.551490328443	503.929733231639	401.801780498129	1119.402088668762	432.652559183365	386.333100151352	1046.333932197219	310.504233071085	327.832763089774	1125.281492129520	203.054949299037	377.385894742632	989.122052148993	382.224025698188	636.164616733848	901.015959331853	298.770343989169	708.170192542881	905.467201556786	199.269109960251	640.250626127194	731.861738471692	57.847186406313	626.304041042631	908.622636357862	97.893292388967	649.027660200231	819.697980419250	43.310927437686	693.722432289167	1026.097228092580	38.167340269005	668.656119609043	1022.602975967560	38.673038700752	406.324533693340	1097.252435974211	37.392058307686	326.575445311121	1178.597222819445	100.887265521490	352.804078138861	1306.832104858210	53.364463635508	325.461160976610	819.805265160420	1102.223988285244	321.983991935166	770.436493393786	852.209501022936	390.820181364260	1289.410519604229	1178.401510438741	808.032798586721	1497.069204329597	1293.193023510047	716.803978177488	
127	33.899000000000	843.879739988142	999.986003593371	597.480137122430	975.901372288243	1423.616701706473	382.308687074893	1112.596108804190	1355.544759241327	516.072481641411	1073.044571160118	1432.537803138697	701.971170711567	988.846919212668	1486.509349819874	538.869202992045	1087.590578123150	928.009754329913	670.455953416207	1026.189010734518	956.296055030909	403.149443578892	1089.401668362855	717.574924394090	636.145561310914	1000.391599927569	615.823678655925	706.881951744667	1055.576626952608	555.402769100881	618.692098443007	1039.192088797280	463.027535165538	625.391409674906	1096.651235443848	759.363627180280	419.618174030493	1016.842857979005	625.132346176675	349.699079936866	1126.242018471419	570.114919197266	401.341687029337	1137.730523869788	502.979805027931	399.870722235897	1121.493113830455	431.486754607734	384.821831557008	1046.870545166490	310.270596971998	326.466300763011	1123.187775324074	201.661541604165	377.191272277730	986.912862119756	382.528526737326	634.794240210052	897.987971467387	300.156101453913	707.174469730168	902.160985891881	200.107430264313	639.853345897422	727.741190159802	59.719873471770	626.339354761644	904.787074761995	98.276595345377	649.099474191451	815.454750807601	44.295086052143	693.734592779134	1021.679776238707	38.020801131367	668.709990463607	1017.607619761550	38.521272458315	406.456584141904	1092.088938867569	37.071859689213	326.504446035069	1174.118259552506	99.615663061528	353.066794538146	1302.063995245797	50.910097369983	325.102650953035	825.170533098566	1100.678051144290	312.733001037712	779.125345494719	848.919038054438	376.963932121646	1285.796106688124	1174.674629594533	803.901448380529	1497.948871866132	1282.942604641735	713.506131976035	
